DataType=double
version=3
OpenSimVersion=4.4-2022-10-11-798caa840
endheader
time	ground_force_r_vx	ground_force_r_vy	ground_force_r_vz	ground_force_r_px	ground_force_r_py	ground_force_r_pz	ground_force_l_vx	ground_force_l_vy	ground_force_l_vz	ground_force_l_px	ground_force_l_py	ground_force_l_pz	ground_torque_r_x	ground_torque_r_y	ground_torque_r_z	ground_torque_l_x	ground_torque_l_y	ground_torque_l_z
3.935	89.71386629781689	828.2017136516375	-41.0327235312297	1.419577179292987	0	-0.4402696573614471	-0.321576906919451	0.2195107814738373	-0.0473155799815187	1.895375379894356	0	-0.5689891421571345	0	2.367713072451572	0	0	4.134010425649315e-09	0
3.94	93.59244974346043	827.1164224706572	-41.20776385085234	1.421132427219388	0	-0.4415608988151018	-0.4927965189663218	0.3612951391362343	-0.0923207684224459	1.900339530633061	0	-0.5677910867599872	0	2.400413985084207	0	0	4.589714469593886e-09	0
3.945	97.42828841798928	824.1189982600632	-41.16701153074462	1.422750963717319	0	-0.4429414737651349	-0.8094014157541263	0.6425830097137856	-0.1944324440612328	1.904396618238394	0	-0.5665457976580168	0	2.396078046108812	0	0	3.560050809703341e-09	0
3.95	101.1743904688884	819.1263345009335	-40.89737973464552	1.424433958931078	0	-0.4443937263483408	-1.407095550098898	1.224722863951227	-0.4407261328341895	1.907562168248272	0	-0.5652821439554263	0	2.356440479089976	0	0	-6.410105335419303e-09	0
3.955	104.9125622761318	812.0125421873638	-40.3265267805355	1.426195117606146	0	-0.4459248638613711	-2.536934510412328	2.468947782636088	-1.060277248293263	1.909856105679983	0	-0.5640509415199112	0	2.303268966654734	0	0	-5.569871319721642e-08	0
3.96	108.5922260958918	802.6104964595509	-39.27924532842717	1.428048791443651	0	-0.4475280998633918	-4.602647478330246	5.167579933387432	-2.620395842236865	1.911322587346401	0	-0.5629810410918289	0	2.277912147584196	0	0	-2.038935393855468e-07	0
3.965	112.1544203575624	790.6673043577921	-37.53719502181967	1.429969449031916	0	-0.4491220317200158	-7.660262750438812	10.79412098347989	-6.59342368497635	1.91196810519325	0	-0.5621655568603608	0	2.273928885755168	0	0	-2.827341045730236e-07	0
3.97	115.7892117287096	776.1177818658838	-35.44685571497754	1.43191533542967	0	-0.4506292451493932	-4.037216339913076	20.77982010673556	-11.43386692931394	1.911532686849272	0	-0.5620951443040642	0	2.223355666873381	0	0	7.104779369271341e-05	0
3.975	119.0815540901269	759.0479357952061	-32.56434486945371	1.433826351525535	0	-0.4519427627106632	9.477603348574593	34.91670824860557	-11.84447852023764	1.911501417407894	0	-0.5623069819776662	0	2.100575192121511	0	0	0.0004143207641043034	0
3.98	121.9758421370991	739.7966627503001	-29.16841525049785	1.435632387879446	0	-0.4529338470942593	23.5774327234059	58.90941265701689	-11.77271430214786	1.91202437154033	0	-0.5623488989426686	0	1.932758360886631	0	0	0.001802083158402468	0
3.985	124.5095517082071	718.7334465308875	-25.97375257172233	1.437308554515517	0	-0.453561143535418	30.51321860192398	109.2401567546077	-12.94094868578719	1.91255402913735	0	-0.5623596317458018	0	1.727655514767861	0	0	0.006481358126674053	0
3.99	126.133015823659	695.450410120331	-22.43203155821079	1.438915927550052	0	-0.4538744111833217	22.16808765265928	176.6620769705951	-13.68496144614447	1.913088347243819	0	-0.5625007601335577	0	1.457115255609807	0	0	0.02223186445929315	0
3.995	126.9791401857112	669.1718533208141	-18.98514089507887	1.440573699199563	0	-0.454004177375515	13.92858098317672	238.7992165600332	-14.82545444836945	1.914113695872361	0	-0.5629558774315714	0	1.10709510788995	0	0	0.07024743757309082	0
4	127.0173057349452	639.0101990240389	-15.92047404844015	1.442386436905984	0	-0.4540344674693519	4.909082600769562	286.311979874603	-15.00696150555663	1.915787641618766	0	-0.5638470534740468	0	0.7264287479928306	0	0	0.1724523501669921	0
4.005	125.8556785677673	604.1584276732428	-12.79757797293776	1.444424663566915	0	-0.4539349049458319	-6.706220455269657	319.0347639824345	-13.07803170431256	1.918004539273755	0	-0.5651019375897124	0	0.3744931959663838	0	0	0.3176925331774285	0
4.01	123.4886430700209	564.9771547581857	-9.86212505670686	1.4467442851158	0	-0.4536479824753181	-18.26812885653963	340.2536847590201	-10.31410527362275	1.920503206738208	0	-0.5665082328467963	0	0.08803796169699396	0	0	0.4820808620142536	0
4.015	120.8089821265532	521.3295367257125	-6.683733163171583	1.449464178425078	0	-0.4531284872438879	-28.95062695755239	357.7043808782828	-7.142287481318494	1.923900322852967	0	-0.568427807195978	0	-0.1183019929067797	0	0	0.7102573530212357	0
4.02	117.6164160011165	469.9539210766465	-3.010802989287908	1.452911154920273	0	-0.4523708660125877	-38.99930998279597	381.9042201651949	-4.084528860395775	1.929485376766889	0	-0.5716236429973836	0	-0.2447902966483371	0	0	1.047943263707701	0
4.025	111.8124401622895	403.1167613742695	0.3929384461755149	1.457815460119953	0	-0.4512557662020942	-49.16697625776711	414.644030139963	-0.5699696273998285	1.936792957421535	0	-0.5755684944591204	0	-0.2772953120224572	0	0	1.38936764605875	0
4.03	103.7642721614913	321.3182564254679	4.165724949145832	1.465366760396309	0	-0.4495203111499017	-58.60648652101018	450.3907684017011	2.919532409222526	1.944532993291586	0	-0.5791014550308672	0	-0.2050298731844897	0	0	1.699427454156344	0
4.035	94.88800164405869	246.8869676629505	7.4821748179765	1.475528504499636	0	-0.4471707493120729	-67.01648861799711	485.5230962690847	5.782032694674093	1.952545457707603	0	-0.5817838166666451	0	-0.08217946750200866	0	0	1.997504651264073	0
4.04	85.23058426281145	203.9653228260149	10.27727829051148	1.482809796066847	0	-0.4459229657165256	-75.97963438842331	520.657426434631	8.747024097899082	1.961540919926274	0	-0.5840135797603608	0	-0.003837188512811451	0	0	2.202898199499433	0
4.045	77.30098786088905	187.3147956248786	12.11748115507127	1.483186164726505	0	-0.4462500395046906	-85.40421144443158	553.6954515996329	12.11837498643687	1.971088442269593	0	-0.586044523795118	0	0.0006909979537113031	0	0	2.230967471823714	0
4.05	72.63371637467245	175.6514246294121	12.36396253887356	1.48372034354591	0	-0.4461659754301972	-93.84778876848685	582.4436202461484	15.05463791268512	1.980653956384742	0	-0.5876085005172638	0	0.0001196786614023893	0	0	2.163539623565423	0
4.055	66.4292190796594	171.7204556990873	12.64189714358592	1.484240258393315	0	-0.4460988641641234	-102.0716302209399	607.5079382633719	17.36245895359072	1.989899097425312	0	-0.5883979691416816	0	8.741650820809355e-05	0	0	2.042461936711071	0
4.06	56.46246227273628	170.2868290875729	12.00903203555046	1.484762355984174	0	-0.4460394629115323	-108.8503777147297	626.4769571986218	19.5576362358233	1.998092635037759	0	-0.5885564100709514	0	0.0001189445396363453	0	0	1.936452052976158	0
4.065	47.996302167639	168.45090028931	10.67368615247977	1.485432102481511	0	-0.4459675528656563	-114.1121723017535	640.4891365248901	21.33729687919147	2.00512360798605	0	-0.5884493728962708	0	0.0001321485648837495	0	0	2.032571032329344	0
4.07	40.14964148798572	163.2448874380716	9.049856831084437	1.486231966941866	0	-0.4458726872569282	-118.1718302122535	652.6610185503624	23.20230566789265	2.010892239871569	0	-0.5883121262257079	0	6.23269874306942e-05	0	0	2.283577788212902	0
4.075	32.32416163518771	151.9454172371341	7.358562712727267	1.487157350802811	0	-0.4457533176368867	-120.7377097596354	664.9469443873545	25.64632438278597	2.015465344097473	0	-0.588273593702181	0	5.407175486027427e-06	0	0	2.51835649237222	0
4.08	24.17304582299734	132.2679631450675	6.116578908917654	1.488219276528468	0	-0.4456068662483369	-122.4028197825277	677.4228354489883	28.36046547513888	2.019062805077414	0	-0.5883519509444129	0	3.738855802737362e-08	0	0	2.680864799427717	0
4.085	17.63155833347972	105.4089070133015	4.191952798653558	1.48947016335958	0	-0.4454728254417497	-123.2374853291836	690.7320737911745	31.24804385308428	2.021897331201981	0	-0.588508868564979	0	2.453859337947506e-11	0	0	2.735963934236025	0
4.09	11.17721814580972	76.35564045769912	1.636722776672153	1.490850311105153	0	-0.4453730664450279	-123.1641337606381	705.674927658871	34.09532037845013	2.024102503435881	0	-0.5886792313873848	0	3.996802888650564e-15	0	0	2.646211151414136	0
4.095000000000001	2.216811675819177	48.05132405433216	1.78293793640187	1.492213820878946	0	-0.4451938001196851	-122.3237495496482	722.0077816182658	35.90755025904605	2.025769811207911	0	-0.5888319283411535	0	0	0	0	2.493526888752953	0
4.1	-7.372491887174564	21.92150252062769	3.570558998830276	1.493499973379021	0	-0.4449118536872659	-120.6599017136372	739.5409283951645	36.75989303530361	2.026943159114948	0	-0.5889958090528915	0	0	0	0	2.276005687785997	0
4.105	-0.7492595458964579	0.814479247857542	0.2045885199958096	1.495867793186211	0	-0.4450228055360377	-118.2446263025043	757.7656095111874	37.07860131049399	2.027615958504161	0	-0.5892047239452152	0	5.551115123125783e-17	0	0	1.976799727284217	0
4.11	0.05517568047033671	-0.05190270127235396	-0.009911057477634157	1.500493010861588	0	-0.4454718474948152	-115.555346165328	773.5562307008182	36.51335466082142	2.027991610701981	0	-0.5894438515435737	0	0	0	0	1.727260437757494	0
4.115	0.1425531569694067	-0.123760617903634	-0.01883448466575241	1.50631053605221	0	-0.4458578262586299	-112.5488015884792	785.2194086133973	35.61929706633227	2.028378022468798	0	-0.5896749936803736	0	-1.734723475976807e-17	0	0	1.587200082902442	0
